<?xml version="1.0" encoding="UTF-8" standalone="no"?>
<!DOCTYPE svg PUBLIC "-//W3C//DTD SVG 1.1//EN"
 "http://www.w3.org/Graphics/SVG/1.1/DTD/svg11.dtd">
<!-- Generated by graphviz version 2.43.0 (0)
 -->
<!-- Title: G Pages: 1 -->
<svg width="4942pt" height="398pt"
 viewBox="0.00 0.00 4942.00 398.22" xmlns="http://www.w3.org/2000/svg" xmlns:xlink="http://www.w3.org/1999/xlink">
<g id="graph0" class="graph" transform="scale(1 1) rotate(0) translate(4 394.22)">
<title>G</title>
<polygon fill="white" stroke="transparent" points="-4,4 -4,-394.22 4938,-394.22 4938,4 -4,4"/>
<g id="clust1" class="cluster">
<title>cluster_G</title>
<path fill="#808080" fill-opacity="0.094118" stroke="black" d="M20,-8C20,-8 4914,-8 4914,-8 4920,-8 4926,-14 4926,-20 4926,-20 4926,-370.22 4926,-370.22 4926,-376.22 4920,-382.22 4914,-382.22 4914,-382.22 20,-382.22 20,-382.22 14,-382.22 8,-376.22 8,-370.22 8,-370.22 8,-20 8,-20 8,-14 14,-8 20,-8"/>
</g>
<g id="clust2" class="cluster">
<title>cluster_display</title>
<path fill="#808080" fill-opacity="0.094118" stroke="black" d="M2064,-180.74C2064,-180.74 2212,-180.74 2212,-180.74 2218,-180.74 2224,-186.74 2224,-192.74 2224,-192.74 2224,-261.48 2224,-261.48 2224,-267.48 2218,-273.48 2212,-273.48 2212,-273.48 2064,-273.48 2064,-273.48 2058,-273.48 2052,-267.48 2052,-261.48 2052,-261.48 2052,-192.74 2052,-192.74 2052,-186.74 2058,-180.74 2064,-180.74"/>
<text text-anchor="middle" x="2138" y="-258.28" font-family="Times,serif" font-size="14.00">display</text>
</g>
<g id="clust3" class="cluster">
<title>cluster_httpserver</title>
<path fill="#808080" fill-opacity="0.094118" stroke="black" d="M2244,-180.74C2244,-180.74 4906,-180.74 4906,-180.74 4912,-180.74 4918,-186.74 4918,-192.74 4918,-192.74 4918,-362.22 4918,-362.22 4918,-368.22 4912,-374.22 4906,-374.22 4906,-374.22 2244,-374.22 2244,-374.22 2238,-374.22 2232,-368.22 2232,-362.22 2232,-362.22 2232,-192.74 2232,-192.74 2232,-186.74 2238,-180.74 2244,-180.74"/>
<text text-anchor="middle" x="3575" y="-359.02" font-family="Times,serif" font-size="14.00">httpserver</text>
</g>
<g id="clust4" class="cluster">
<title>cluster_led</title>
<path fill="#808080" fill-opacity="0.094118" stroke="black" d="M40,-80C40,-80 150,-80 150,-80 156,-80 162,-86 162,-92 162,-92 162,-160.74 162,-160.74 162,-166.74 156,-172.74 150,-172.74 150,-172.74 40,-172.74 40,-172.74 34,-172.74 28,-166.74 28,-160.74 28,-160.74 28,-92 28,-92 28,-86 34,-80 40,-80"/>
<text text-anchor="middle" x="95" y="-157.54" font-family="Times,serif" font-size="14.00">led</text>
</g>
<g id="clust5" class="cluster">
<title>cluster_runaiorepl</title>
<path fill="#808080" fill-opacity="0.094118" stroke="black" d="M1622,-80C1622,-80 2032,-80 2032,-80 2038,-80 2044,-86 2044,-92 2044,-92 2044,-261.48 2044,-261.48 2044,-267.48 2038,-273.48 2032,-273.48 2032,-273.48 1622,-273.48 1622,-273.48 1616,-273.48 1610,-267.48 1610,-261.48 1610,-261.48 1610,-92 1610,-92 1610,-86 1616,-80 1622,-80"/>
<text text-anchor="middle" x="1827" y="-258.28" font-family="Times,serif" font-size="14.00">runaiorepl</text>
</g>
<g id="clust6" class="cluster">
<title>cluster_runaioreplmicrodot</title>
<path fill="#808080" fill-opacity="0.094118" stroke="black" d="M674,-180.74C674,-180.74 1590,-180.74 1590,-180.74 1596,-180.74 1602,-186.74 1602,-192.74 1602,-192.74 1602,-261.48 1602,-261.48 1602,-267.48 1596,-273.48 1590,-273.48 1590,-273.48 674,-273.48 674,-273.48 668,-273.48 662,-267.48 662,-261.48 662,-261.48 662,-192.74 662,-192.74 662,-186.74 668,-180.74 674,-180.74"/>
<text text-anchor="middle" x="1132" y="-258.28" font-family="Times,serif" font-size="14.00">runaioreplmicrodot</text>
</g>
<g id="clust7" class="cluster">
<title>cluster_runmicrodot</title>
<path fill="#808080" fill-opacity="0.094118" stroke="black" d="M2001,-281.48C2001,-281.48 2207,-281.48 2207,-281.48 2213,-281.48 2219,-287.48 2219,-293.48 2219,-293.48 2219,-362.22 2219,-362.22 2219,-368.22 2213,-374.22 2207,-374.22 2207,-374.22 2001,-374.22 2001,-374.22 1995,-374.22 1989,-368.22 1989,-362.22 1989,-362.22 1989,-293.48 1989,-293.48 1989,-287.48 1995,-281.48 2001,-281.48"/>
<text text-anchor="middle" x="2104" y="-359.02" font-family="Times,serif" font-size="14.00">runmicrodot</text>
</g>
<g id="clust8" class="cluster">
<title>cluster_startsystem</title>
<path fill="#808080" fill-opacity="0.094118" stroke="black" d="M256,-180.74C256,-180.74 470,-180.74 470,-180.74 476,-180.74 482,-186.74 482,-192.74 482,-192.74 482,-261.48 482,-261.48 482,-267.48 476,-273.48 470,-273.48 470,-273.48 256,-273.48 256,-273.48 250,-273.48 244,-267.48 244,-261.48 244,-261.48 244,-192.74 244,-192.74 244,-186.74 250,-180.74 256,-180.74"/>
<text text-anchor="middle" x="363" y="-258.28" font-family="Times,serif" font-size="14.00">startsystem</text>
</g>
<!-- boot -->
<g id="node1" class="node">
<title>boot</title>
<ellipse fill="#ffffff" fill-opacity="0.698039" stroke="black" cx="1943" cy="-316.35" rx="31.4" ry="18"/>
<text text-anchor="middle" x="1943" y="-312.65" font-family="Times,serif" font-size="14.00" fill="#000000">boot</text>
</g>
<!-- config -->
<g id="node2" class="node">
<title>config</title>
<ellipse fill="#ffffff" fill-opacity="0.698039" stroke="black" cx="421" cy="-34" rx="38.19" ry="18"/>
<text text-anchor="middle" x="421" y="-30.3" font-family="Times,serif" font-size="14.00" fill="#000000">config</text>
</g>
<!-- display -->
<g id="node3" class="node">
<title>display</title>
<ellipse fill="#ffffff" fill-opacity="0.698039" stroke="black" cx="576" cy="-114.87" rx="44.39" ry="18"/>
<text text-anchor="middle" x="576" y="-111.17" font-family="Times,serif" font-size="14.00" fill="#000000">display</text>
</g>
<!-- display&#45;&gt;config -->
<g id="edge1" class="edge">
<title>display&#45;&gt;config</title>
<path fill="none" stroke="#000000" d="M552.58,-99.52C542.12,-93.29 529.58,-86.05 518,-80 498.24,-69.68 475.68,-59.14 457.29,-50.86"/>
<polygon fill="#000000" stroke="#000000" points="458.65,-47.63 448.09,-46.75 455.79,-54.02 458.65,-47.63"/>
</g>
<!-- httpserver -->
<g id="node4" class="node">
<title>httpserver</title>
<ellipse fill="#ffffff" fill-opacity="0.698039" stroke="black" cx="572" cy="-215.61" rx="59.59" ry="18"/>
<text text-anchor="middle" x="572" y="-211.91" font-family="Times,serif" font-size="14.00" fill="#000000">httpserver</text>
</g>
<!-- httpserver&#45;&gt;config -->
<g id="edge3" class="edge">
<title>httpserver&#45;&gt;config</title>
<path fill="none" stroke="#000000" d="M548.28,-199.05C539.18,-192 529.46,-182.96 523,-172.74 500.2,-136.65 523.92,-113.92 498,-80 488.22,-67.21 473.68,-57.38 459.86,-50.22"/>
<polygon fill="#000000" stroke="#000000" points="461,-46.89 450.47,-45.69 457.96,-53.19 461,-46.89"/>
</g>
<!-- httpserver&#45;&gt;display -->
<g id="edge2" class="edge">
<title>httpserver&#45;&gt;display</title>
<path fill="none" stroke="#000000" d="M572.7,-197.41C573.3,-182.4 574.2,-160.37 574.9,-142.99"/>
<polygon fill="#000000" stroke="#000000" points="578.4,-143.01 575.31,-132.87 571.41,-142.72 578.4,-143.01"/>
</g>
<!-- i2c -->
<g id="node5" class="node">
<title>i2c</title>
<ellipse fill="#ffffff" fill-opacity="0.698039" stroke="black" cx="135" cy="-215.61" rx="27" ry="18"/>
<text text-anchor="middle" x="135" y="-211.91" font-family="Times,serif" font-size="14.00" fill="#000000">i2c</text>
</g>
<!-- i2c&#45;&gt;config -->
<g id="edge14" class="edge">
<title>i2c&#45;&gt;config</title>
<path fill="none" stroke="#000000" d="M147.12,-199.04C172.2,-167.2 229.65,-96.24 256,-80 291.96,-57.83 338.92,-46.4 373.54,-40.63"/>
<polygon fill="#000000" stroke="#000000" points="374.52,-44.02 383.86,-39.01 373.44,-37.1 374.52,-44.02"/>
</g>
<!-- led -->
<g id="node6" class="node">
<title>led</title>
<ellipse fill="#ffffff" fill-opacity="0.698039" stroke="black" cx="43" cy="-215.61" rx="27" ry="18"/>
<text text-anchor="middle" x="43" y="-211.91" font-family="Times,serif" font-size="14.00" fill="#000000">led</text>
</g>
<!-- led&#45;&gt;config -->
<g id="edge16" class="edge">
<title>led&#45;&gt;config</title>
<path fill="none" stroke="#000000" d="M33.67,-198.61C18.8,-170.79 -5.71,-113.27 24,-80 46.87,-54.39 271.84,-41.48 372.61,-36.94"/>
<polygon fill="#000000" stroke="#000000" points="372.99,-40.43 382.83,-36.49 372.68,-33.43 372.99,-40.43"/>
</g>
<!-- led__off -->
<g id="node28" class="node">
<title>led__off</title>
<ellipse fill="#ccfed3" fill-opacity="0.698039" stroke="black" cx="95" cy="-114.87" rx="59.29" ry="26.74"/>
<text text-anchor="middle" x="95" y="-118.67" font-family="Times,serif" font-size="14.00" fill="#000000">off</text>
<text text-anchor="middle" x="95" y="-103.67" font-family="Times,serif" font-size="14.00" fill="#000000">(led.py:8)</text>
</g>
<!-- led&#45;&gt;led__off -->
<g id="edge15" class="edge">
<title>led&#45;&gt;led__off</title>
<path fill="none" stroke="#000000" d="M51.59,-198.31C58.44,-185.3 68.27,-166.63 76.84,-150.35"/>
<polygon fill="#000000" stroke="#000000" points="80.15,-151.58 81.71,-141.1 73.96,-148.31 80.15,-151.58"/>
</g>
<!-- rgb1 -->
<g id="node7" class="node">
<title>rgb1</title>
<ellipse fill="#ffffff" fill-opacity="0.698039" stroke="black" cx="1851" cy="-316.35" rx="32.49" ry="18"/>
<text text-anchor="middle" x="1851" y="-312.65" font-family="Times,serif" font-size="14.00" fill="#000000">rgb1</text>
</g>
<!-- runaiorepl -->
<g id="node8" class="node">
<title>runaiorepl</title>
<ellipse fill="#ffffff" fill-opacity="0.698039" stroke="black" cx="1721" cy="-316.35" rx="59.29" ry="18"/>
<text text-anchor="middle" x="1721" y="-312.65" font-family="Times,serif" font-size="14.00" fill="#000000">runaiorepl</text>
</g>
<!-- runaiorepl__main -->
<g id="node30" class="node">
<title>runaiorepl__main</title>
<ellipse fill="#ccfefe" fill-opacity="0.698039" stroke="black" cx="1721" cy="-215.61" rx="103.48" ry="26.74"/>
<text text-anchor="middle" x="1721" y="-219.41" font-family="Times,serif" font-size="14.00" fill="#000000">main</text>
<text text-anchor="middle" x="1721" y="-204.41" font-family="Times,serif" font-size="14.00" fill="#000000">(runaiorepl.py:16)</text>
</g>
<!-- runaiorepl&#45;&gt;runaiorepl__main -->
<g id="edge18" class="edge">
<title>runaiorepl&#45;&gt;runaiorepl__main</title>
<path fill="none" stroke="#000000" d="M1721,-298.15C1721,-285.67 1721,-268.33 1721,-252.85"/>
<polygon fill="#000000" stroke="#000000" points="1724.5,-252.51 1721,-242.51 1717.5,-252.51 1724.5,-252.51"/>
</g>
<!-- runaioreplmicrodot -->
<g id="node9" class="node">
<title>runaioreplmicrodot</title>
<ellipse fill="#ffffff" fill-opacity="0.698039" stroke="black" cx="1132" cy="-316.35" rx="100.98" ry="18"/>
<text text-anchor="middle" x="1132" y="-312.65" font-family="Times,serif" font-size="14.00" fill="#000000">runaioreplmicrodot</text>
</g>
<!-- runaioreplmicrodot__main -->
<g id="node33" class="node">
<title>runaioreplmicrodot__main</title>
<ellipse fill="#cce9fe" fill-opacity="0.698039" stroke="black" cx="1132" cy="-215.61" rx="147.57" ry="26.74"/>
<text text-anchor="middle" x="1132" y="-219.41" font-family="Times,serif" font-size="14.00" fill="#000000">main</text>
<text text-anchor="middle" x="1132" y="-204.41" font-family="Times,serif" font-size="14.00" fill="#000000">(runaioreplmicrodot.py:34)</text>
</g>
<!-- runaioreplmicrodot&#45;&gt;runaioreplmicrodot__main -->
<g id="edge17" class="edge">
<title>runaioreplmicrodot&#45;&gt;runaioreplmicrodot__main</title>
<path fill="none" stroke="#000000" d="M1132,-298.15C1132,-285.67 1132,-268.33 1132,-252.85"/>
<polygon fill="#000000" stroke="#000000" points="1135.5,-252.51 1132,-242.51 1128.5,-252.51 1135.5,-252.51"/>
</g>
<!-- runmicrodot -->
<g id="node10" class="node">
<title>runmicrodot</title>
<ellipse fill="#ffffff" fill-opacity="0.698039" stroke="black" cx="731" cy="-316.35" rx="68.49" ry="18"/>
<text text-anchor="middle" x="731" y="-312.65" font-family="Times,serif" font-size="14.00" fill="#000000">runmicrodot</text>
</g>
<!-- startsystem -->
<g id="node11" class="node">
<title>startsystem</title>
<ellipse fill="#ffffff" fill-opacity="0.698039" stroke="black" cx="363" cy="-316.35" rx="66.09" ry="18"/>
<text text-anchor="middle" x="363" y="-312.65" font-family="Times,serif" font-size="14.00" fill="#000000">startsystem</text>
</g>
<!-- startsystem&#45;&gt;config -->
<g id="edge22" class="edge">
<title>startsystem&#45;&gt;config</title>
<path fill="none" stroke="#000000" d="M424.58,-309.41C447.71,-303.84 471.82,-293.29 486,-273.48 509.99,-239.97 494.58,-221.05 486,-180.74 476.52,-136.19 452.4,-88.75 436.36,-60.51"/>
<polygon fill="#000000" stroke="#000000" points="439.3,-58.6 431.27,-51.7 433.25,-62.11 439.3,-58.6"/>
</g>
<!-- startsystem&#45;&gt;display -->
<g id="edge27" class="edge">
<title>startsystem&#45;&gt;display</title>
<path fill="none" stroke="#000000" d="M429.16,-314.93C502.56,-312.9 614.22,-304.6 641,-273.48 667.89,-242.24 656.79,-218.81 641,-180.74 633.82,-163.42 619.52,-148.33 606.16,-137.07"/>
<polygon fill="#000000" stroke="#000000" points="608.02,-134.08 598.03,-130.56 603.65,-139.54 608.02,-134.08"/>
</g>
<!-- startsystem&#45;&gt;httpserver -->
<g id="edge26" class="edge">
<title>startsystem&#45;&gt;httpserver</title>
<path fill="none" stroke="#000000" d="M412.75,-304.43C438.99,-297.57 471.2,-287.36 498,-273.48 515.39,-264.47 532.86,-251.28 546.46,-239.88"/>
<polygon fill="#000000" stroke="#000000" points="549.09,-242.23 554.39,-233.06 544.52,-236.93 549.09,-242.23"/>
</g>
<!-- startsystem&#45;&gt;i2c -->
<g id="edge24" class="edge">
<title>startsystem&#45;&gt;i2c</title>
<path fill="none" stroke="#000000" d="M317.53,-303.18C290.49,-296.22 255.44,-287.67 224,-281.48 200.63,-276.88 190.95,-286.5 171,-273.48 159.68,-266.1 151.25,-253.78 145.4,-242.5"/>
<polygon fill="#000000" stroke="#000000" points="148.53,-240.93 141.08,-233.39 142.2,-243.92 148.53,-240.93"/>
</g>
<!-- startsystem&#45;&gt;led -->
<g id="edge28" class="edge">
<title>startsystem&#45;&gt;led</title>
<path fill="none" stroke="#000000" d="M319.58,-302.61C292.37,-295.17 256.43,-286.32 224,-281.48 193.18,-276.88 111.32,-288.46 84,-273.48 71.37,-266.55 61.65,-253.87 54.86,-242.24"/>
<polygon fill="#000000" stroke="#000000" points="57.85,-240.42 50.03,-233.27 51.69,-243.74 57.85,-240.42"/>
</g>
<!-- wifi -->
<g id="node13" class="node">
<title>wifi</title>
<ellipse fill="#ffffff" fill-opacity="0.698039" stroke="black" cx="207" cy="-215.61" rx="27.1" ry="18"/>
<text text-anchor="middle" x="207" y="-211.91" font-family="Times,serif" font-size="14.00" fill="#000000">wifi</text>
</g>
<!-- startsystem&#45;&gt;wifi -->
<g id="edge20" class="edge">
<title>startsystem&#45;&gt;wifi</title>
<path fill="none" stroke="#000000" d="M308.89,-305.79C285.76,-299.6 259.63,-289.57 240,-273.48 230.03,-265.31 222.44,-253.28 217.06,-242.39"/>
<polygon fill="#000000" stroke="#000000" points="220.22,-240.89 212.9,-233.24 213.85,-243.79 220.22,-240.89"/>
</g>
<!-- display__message -->
<g id="node14" class="node">
<title>display__message</title>
<ellipse fill="#fef7cc" fill-opacity="0.698039" stroke="black" cx="2138" cy="-215.61" rx="78.48" ry="26.74"/>
<text text-anchor="middle" x="2138" y="-219.41" font-family="Times,serif" font-size="14.00" fill="#000000">message</text>
<text text-anchor="middle" x="2138" y="-204.41" font-family="Times,serif" font-size="14.00" fill="#000000">(display.py:8)</text>
</g>
<!-- startsystem&#45;&gt;display__message -->
<g id="edge25" class="edge">
<title>startsystem&#45;&gt;display__message</title>
<path fill="none" stroke="#000000" d="M419.71,-306.88C478.24,-298.57 572.26,-286.46 654,-281.48 692.65,-279.13 2010.84,-284.35 2048,-273.48 2066.86,-267.96 2085.58,-257.22 2101.02,-246.54"/>
<polygon fill="#000000" stroke="#000000" points="2103.15,-249.32 2109.24,-240.65 2099.07,-243.63 2103.15,-249.32"/>
</g>
<!-- startsystem&#45;&gt;led__off -->
<g id="edge21" class="edge">
<title>startsystem&#45;&gt;led__off</title>
<path fill="none" stroke="#000000" d="M319.57,-302.69C292.35,-295.28 256.41,-286.43 224,-281.48 210.24,-279.38 108.65,-283.51 99,-273.48 82.94,-256.79 86.37,-193.27 90.54,-152.14"/>
<polygon fill="#000000" stroke="#000000" points="94.04,-152.27 91.63,-141.95 87.08,-151.52 94.04,-152.27"/>
</g>
<!-- startsystem__main -->
<g id="node36" class="node">
<title>startsystem__main</title>
<ellipse fill="#daccfe" fill-opacity="0.698039" stroke="black" cx="363" cy="-215.61" rx="111.03" ry="26.74"/>
<text text-anchor="middle" x="363" y="-219.41" font-family="Times,serif" font-size="14.00" fill="#000000">main</text>
<text text-anchor="middle" x="363" y="-204.41" font-family="Times,serif" font-size="14.00" fill="#000000">(startsystem.py:16)</text>
</g>
<!-- startsystem&#45;&gt;startsystem__main -->
<g id="edge23" class="edge">
<title>startsystem&#45;&gt;startsystem__main</title>
<path fill="none" stroke="#000000" d="M363,-298.15C363,-285.67 363,-268.33 363,-252.85"/>
<polygon fill="#000000" stroke="#000000" points="366.5,-252.51 363,-242.51 359.5,-252.51 366.5,-252.51"/>
</g>
<!-- webrepl_cfg -->
<g id="node12" class="node">
<title>webrepl_cfg</title>
<ellipse fill="#ffffff" fill-opacity="0.698039" stroke="black" cx="148" cy="-316.35" rx="66.89" ry="18"/>
<text text-anchor="middle" x="148" y="-312.65" font-family="Times,serif" font-size="14.00" fill="#000000">webrepl_cfg</text>
</g>
<!-- wifi&#45;&gt;config -->
<g id="edge29" class="edge">
<title>wifi&#45;&gt;config</title>
<path fill="none" stroke="#000000" d="M219.84,-199.33C225.59,-193.07 232.71,-186.07 240,-180.74 246.42,-176.05 249.35,-177.09 256,-172.74 310.17,-137.28 366.7,-86.62 397.51,-57.65"/>
<polygon fill="#000000" stroke="#000000" points="400.28,-59.85 405.14,-50.43 395.47,-54.76 400.28,-59.85"/>
</g>
<!-- httpserver__blue -->
<g id="node15" class="node">
<title>httpserver__blue</title>
<ellipse fill="#f0fecc" fill-opacity="0.698039" stroke="black" cx="3239" cy="-316.35" rx="103.48" ry="26.74"/>
<text text-anchor="middle" x="3239" y="-320.15" font-family="Times,serif" font-size="14.00" fill="#000000">blue</text>
<text text-anchor="middle" x="3239" y="-305.15" font-family="Times,serif" font-size="14.00" fill="#000000">(httpserver.py:52)</text>
</g>
<!-- httpserver__ledtowebresponse -->
<g id="node22" class="node">
<title>httpserver__ledtowebresponse</title>
<ellipse fill="#f0fecc" fill-opacity="0.698039" stroke="black" cx="3911" cy="-215.61" rx="103.48" ry="26.74"/>
<text text-anchor="middle" x="3911" y="-219.41" font-family="Times,serif" font-size="14.00" fill="#000000">ledtowebresponse</text>
<text text-anchor="middle" x="3911" y="-204.41" font-family="Times,serif" font-size="14.00" fill="#000000">(httpserver.py:19)</text>
</g>
<!-- httpserver__blue&#45;&gt;httpserver__ledtowebresponse -->
<g id="edge10" class="edge">
<title>httpserver__blue&#45;&gt;httpserver__ledtowebresponse</title>
<path fill="none" stroke="#000000" d="M3300.4,-294.63C3316.7,-289.73 3334.39,-284.92 3351,-281.48 3505.54,-249.43 3687.59,-232.02 3801.17,-223.52"/>
<polygon fill="#000000" stroke="#000000" points="3801.55,-227 3811.26,-222.77 3801.03,-220.02 3801.55,-227"/>
</g>
<!-- httpserver__blueoff -->
<g id="node16" class="node">
<title>httpserver__blueoff</title>
<ellipse fill="#f0fecc" fill-opacity="0.698039" stroke="black" cx="3015" cy="-316.35" rx="103.48" ry="26.74"/>
<text text-anchor="middle" x="3015" y="-320.15" font-family="Times,serif" font-size="14.00" fill="#000000">blueoff</text>
<text text-anchor="middle" x="3015" y="-305.15" font-family="Times,serif" font-size="14.00" fill="#000000">(httpserver.py:61)</text>
</g>
<!-- httpserver__blueoff&#45;&gt;httpserver__ledtowebresponse -->
<g id="edge12" class="edge">
<title>httpserver__blueoff&#45;&gt;httpserver__ledtowebresponse</title>
<path fill="none" stroke="#000000" d="M3075.45,-294.52C3091.99,-289.53 3110.04,-284.71 3127,-281.48 3362.75,-236.6 3644.23,-222.77 3797.59,-218.51"/>
<polygon fill="#000000" stroke="#000000" points="3798.06,-222 3807.96,-218.23 3797.87,-215 3798.06,-222"/>
</g>
<!-- httpserver__blueon -->
<g id="node17" class="node">
<title>httpserver__blueon</title>
<ellipse fill="#f0fecc" fill-opacity="0.698039" stroke="black" cx="2791" cy="-316.35" rx="103.48" ry="26.74"/>
<text text-anchor="middle" x="2791" y="-320.15" font-family="Times,serif" font-size="14.00" fill="#000000">blueon</text>
<text text-anchor="middle" x="2791" y="-305.15" font-family="Times,serif" font-size="14.00" fill="#000000">(httpserver.py:56)</text>
</g>
<!-- httpserver__blueon&#45;&gt;httpserver__ledtowebresponse -->
<g id="edge11" class="edge">
<title>httpserver__blueon&#45;&gt;httpserver__ledtowebresponse</title>
<path fill="none" stroke="#000000" d="M2851.12,-294.41C2867.74,-289.38 2885.91,-284.57 2903,-281.48 3072.1,-250.89 3573.08,-229.12 3798.67,-220.59"/>
<polygon fill="#000000" stroke="#000000" points="3799.01,-224.08 3808.87,-220.21 3798.75,-217.08 3799.01,-224.08"/>
</g>
<!-- httpserver__green -->
<g id="node18" class="node">
<title>httpserver__green</title>
<ellipse fill="#f0fecc" fill-opacity="0.698039" stroke="black" cx="4807" cy="-316.35" rx="103.48" ry="26.74"/>
<text text-anchor="middle" x="4807" y="-320.15" font-family="Times,serif" font-size="14.00" fill="#000000">green</text>
<text text-anchor="middle" x="4807" y="-305.15" font-family="Times,serif" font-size="14.00" fill="#000000">(httpserver.py:38)</text>
</g>
<!-- httpserver__green&#45;&gt;httpserver__ledtowebresponse -->
<g id="edge7" class="edge">
<title>httpserver__green&#45;&gt;httpserver__ledtowebresponse</title>
<path fill="none" stroke="#000000" d="M4746.55,-294.52C4730.01,-289.53 4711.96,-284.71 4695,-281.48 4459.25,-236.6 4177.77,-222.77 4024.41,-218.51"/>
<polygon fill="#000000" stroke="#000000" points="4024.13,-215 4014.04,-218.23 4023.94,-222 4024.13,-215"/>
</g>
<!-- httpserver__greenoff -->
<g id="node19" class="node">
<title>httpserver__greenoff</title>
<ellipse fill="#f0fecc" fill-opacity="0.698039" stroke="black" cx="4583" cy="-316.35" rx="103.48" ry="26.74"/>
<text text-anchor="middle" x="4583" y="-320.15" font-family="Times,serif" font-size="14.00" fill="#000000">greenoff</text>
<text text-anchor="middle" x="4583" y="-305.15" font-family="Times,serif" font-size="14.00" fill="#000000">(httpserver.py:47)</text>
</g>
<!-- httpserver__greenoff&#45;&gt;httpserver__ledtowebresponse -->
<g id="edge9" class="edge">
<title>httpserver__greenoff&#45;&gt;httpserver__ledtowebresponse</title>
<path fill="none" stroke="#000000" d="M4521.6,-294.63C4505.3,-289.73 4487.61,-284.92 4471,-281.48 4316.46,-249.43 4134.41,-232.02 4020.83,-223.52"/>
<polygon fill="#000000" stroke="#000000" points="4020.97,-220.02 4010.74,-222.77 4020.45,-227 4020.97,-220.02"/>
</g>
<!-- httpserver__greenon -->
<g id="node20" class="node">
<title>httpserver__greenon</title>
<ellipse fill="#f0fecc" fill-opacity="0.698039" stroke="black" cx="4359" cy="-316.35" rx="103.48" ry="26.74"/>
<text text-anchor="middle" x="4359" y="-320.15" font-family="Times,serif" font-size="14.00" fill="#000000">greenon</text>
<text text-anchor="middle" x="4359" y="-305.15" font-family="Times,serif" font-size="14.00" fill="#000000">(httpserver.py:42)</text>
</g>
<!-- httpserver__greenon&#45;&gt;httpserver__ledtowebresponse -->
<g id="edge8" class="edge">
<title>httpserver__greenon&#45;&gt;httpserver__ledtowebresponse</title>
<path fill="none" stroke="#000000" d="M4295.94,-295.04C4280.05,-290.27 4262.97,-285.43 4247,-281.48 4166.77,-261.66 4074.52,-244.22 4007,-232.44"/>
<polygon fill="#000000" stroke="#000000" points="4007.26,-228.93 3996.8,-230.67 4006.06,-235.82 4007.26,-228.93"/>
</g>
<!-- httpserver__index -->
<g id="node21" class="node">
<title>httpserver__index</title>
<ellipse fill="#f0fecc" fill-opacity="0.698039" stroke="black" cx="3463" cy="-316.35" rx="103.48" ry="26.74"/>
<text text-anchor="middle" x="3463" y="-320.15" font-family="Times,serif" font-size="14.00" fill="#000000">index</text>
<text text-anchor="middle" x="3463" y="-305.15" font-family="Times,serif" font-size="14.00" fill="#000000">(httpserver.py:14)</text>
</g>
<!-- httpserver__message -->
<g id="node23" class="node">
<title>httpserver__message</title>
<ellipse fill="#f0fecc" fill-opacity="0.698039" stroke="black" cx="2567" cy="-316.35" rx="103.48" ry="26.74"/>
<text text-anchor="middle" x="2567" y="-320.15" font-family="Times,serif" font-size="14.00" fill="#000000">message</text>
<text text-anchor="middle" x="2567" y="-305.15" font-family="Times,serif" font-size="14.00" fill="#000000">(httpserver.py:73)</text>
</g>
<!-- httpserver__message&#45;&gt;display__message -->
<g id="edge13" class="edge">
<title>httpserver__message&#45;&gt;display__message</title>
<path fill="none" stroke="#000000" d="M2507.52,-294.25C2490.74,-289.16 2472.33,-284.36 2455,-281.48 2405.21,-273.22 2276.23,-288.37 2228,-273.48 2209.37,-267.73 2190.82,-257.07 2175.44,-246.51"/>
<polygon fill="#000000" stroke="#000000" points="2177.42,-243.63 2167.24,-240.69 2173.37,-249.33 2177.42,-243.63"/>
</g>
<!-- httpserver__red -->
<g id="node24" class="node">
<title>httpserver__red</title>
<ellipse fill="#f0fecc" fill-opacity="0.698039" stroke="black" cx="4135" cy="-316.35" rx="103.48" ry="26.74"/>
<text text-anchor="middle" x="4135" y="-320.15" font-family="Times,serif" font-size="14.00" fill="#000000">red</text>
<text text-anchor="middle" x="4135" y="-305.15" font-family="Times,serif" font-size="14.00" fill="#000000">(httpserver.py:24)</text>
</g>
<!-- httpserver__red&#45;&gt;httpserver__ledtowebresponse -->
<g id="edge4" class="edge">
<title>httpserver__red&#45;&gt;httpserver__ledtowebresponse</title>
<path fill="none" stroke="#000000" d="M4084.17,-292.94C4050.64,-278.16 4006.55,-258.73 3971.25,-243.17"/>
<polygon fill="#000000" stroke="#000000" points="3972.58,-239.93 3962.02,-239.1 3969.75,-246.33 3972.58,-239.93"/>
</g>
<!-- httpserver__redoff -->
<g id="node25" class="node">
<title>httpserver__redoff</title>
<ellipse fill="#f0fecc" fill-opacity="0.698039" stroke="black" cx="3911" cy="-316.35" rx="103.48" ry="26.74"/>
<text text-anchor="middle" x="3911" y="-320.15" font-family="Times,serif" font-size="14.00" fill="#000000">redoff</text>
<text text-anchor="middle" x="3911" y="-305.15" font-family="Times,serif" font-size="14.00" fill="#000000">(httpserver.py:33)</text>
</g>
<!-- httpserver__redoff&#45;&gt;httpserver__ledtowebresponse -->
<g id="edge6" class="edge">
<title>httpserver__redoff&#45;&gt;httpserver__ledtowebresponse</title>
<path fill="none" stroke="#000000" d="M3911,-289.41C3911,-278.27 3911,-265.06 3911,-252.98"/>
<polygon fill="#000000" stroke="#000000" points="3914.5,-252.72 3911,-242.72 3907.5,-252.72 3914.5,-252.72"/>
</g>
<!-- httpserver__redon -->
<g id="node26" class="node">
<title>httpserver__redon</title>
<ellipse fill="#f0fecc" fill-opacity="0.698039" stroke="black" cx="3687" cy="-316.35" rx="103.48" ry="26.74"/>
<text text-anchor="middle" x="3687" y="-320.15" font-family="Times,serif" font-size="14.00" fill="#000000">redon</text>
<text text-anchor="middle" x="3687" y="-305.15" font-family="Times,serif" font-size="14.00" fill="#000000">(httpserver.py:28)</text>
</g>
<!-- httpserver__redon&#45;&gt;httpserver__ledtowebresponse -->
<g id="edge5" class="edge">
<title>httpserver__redon&#45;&gt;httpserver__ledtowebresponse</title>
<path fill="none" stroke="#000000" d="M3737.83,-292.94C3771.36,-278.16 3815.45,-258.73 3850.75,-243.17"/>
<polygon fill="#000000" stroke="#000000" points="3852.25,-246.33 3859.98,-239.1 3849.42,-239.93 3852.25,-246.33"/>
</g>
<!-- httpserver__static -->
<g id="node27" class="node">
<title>httpserver__static</title>
<ellipse fill="#f0fecc" fill-opacity="0.698039" stroke="black" cx="2343" cy="-316.35" rx="103.48" ry="26.74"/>
<text text-anchor="middle" x="2343" y="-320.15" font-family="Times,serif" font-size="14.00" fill="#000000">static</text>
<text text-anchor="middle" x="2343" y="-305.15" font-family="Times,serif" font-size="14.00" fill="#000000">(httpserver.py:82)</text>
</g>
<!-- runaiorepl__demo -->
<g id="node29" class="node">
<title>runaiorepl__demo</title>
<ellipse fill="#ccfefe" fill-opacity="0.698039" stroke="black" cx="1939" cy="-215.61" rx="96.75" ry="26.74"/>
<text text-anchor="middle" x="1939" y="-219.41" font-family="Times,serif" font-size="14.00" fill="#000000">demo</text>
<text text-anchor="middle" x="1939" y="-204.41" font-family="Times,serif" font-size="14.00" fill="#000000">(runaiorepl.py:4)</text>
</g>
<!-- runaiorepl__task1 -->
<g id="node31" class="node">
<title>runaiorepl__task1</title>
<ellipse fill="#ccfefe" fill-opacity="0.698039" stroke="black" cx="1721" cy="-114.87" rx="103.48" ry="26.74"/>
<text text-anchor="middle" x="1721" y="-118.67" font-family="Times,serif" font-size="14.00" fill="#000000">task1</text>
<text text-anchor="middle" x="1721" y="-103.67" font-family="Times,serif" font-size="14.00" fill="#000000">(runaiorepl.py:10)</text>
</g>
<!-- runaiorepl__main&#45;&gt;runaiorepl__task1 -->
<g id="edge19" class="edge">
<title>runaiorepl__main&#45;&gt;runaiorepl__task1</title>
<path fill="none" stroke="#000000" d="M1721,-188.67C1721,-177.53 1721,-164.32 1721,-152.24"/>
<polygon fill="#000000" stroke="#000000" points="1724.5,-151.98 1721,-141.98 1717.5,-151.98 1724.5,-151.98"/>
</g>
<!-- runaioreplmicrodot__index -->
<g id="node32" class="node">
<title>runaioreplmicrodot__index</title>
<ellipse fill="#cce9fe" fill-opacity="0.698039" stroke="black" cx="1446" cy="-215.61" rx="147.57" ry="26.74"/>
<text text-anchor="middle" x="1446" y="-219.41" font-family="Times,serif" font-size="14.00" fill="#000000">index</text>
<text text-anchor="middle" x="1446" y="-204.41" font-family="Times,serif" font-size="14.00" fill="#000000">(runaioreplmicrodot.py:22)</text>
</g>
<!-- runaioreplmicrodot__static -->
<g id="node34" class="node">
<title>runaioreplmicrodot__static</title>
<ellipse fill="#cce9fe" fill-opacity="0.698039" stroke="black" cx="818" cy="-215.61" rx="147.57" ry="26.74"/>
<text text-anchor="middle" x="818" y="-219.41" font-family="Times,serif" font-size="14.00" fill="#000000">static</text>
<text text-anchor="middle" x="818" y="-204.41" font-family="Times,serif" font-size="14.00" fill="#000000">(runaioreplmicrodot.py:27)</text>
</g>
<!-- runmicrodot__index -->
<g id="node35" class="node">
<title>runmicrodot__index</title>
<ellipse fill="#ccd3fe" fill-opacity="0.698039" stroke="black" cx="2104" cy="-316.35" rx="106.55" ry="26.74"/>
<text text-anchor="middle" x="2104" y="-320.15" font-family="Times,serif" font-size="14.00" fill="#000000">index</text>
<text text-anchor="middle" x="2104" y="-305.15" font-family="Times,serif" font-size="14.00" fill="#000000">(runmicrodot.py:6)</text>
</g>
</g>
</svg>

